<svg width="56" height="56" viewBox="0 0 56 56" fill="none" xmlns="http://www.w3.org/2000/svg">
<path d="M51.1875 27.6719H34.2344C34.0603 27.6719 33.8934 27.741 33.7703 27.8641C33.6473 27.9872 33.5781 28.1541 33.5781 28.3281V32.1562C33.5781 32.3303 33.6473 32.4972 33.7703 32.6203C33.8934 32.7434 34.0603 32.8125 34.2344 32.8125H51.1875C51.3615 32.8125 51.5285 32.7434 51.6515 32.6203C51.7746 32.4972 51.8438 32.3303 51.8438 32.1562V28.3281C51.8438 28.1541 51.7746 27.9872 51.6515 27.8641C51.5285 27.741 51.3615 27.6719 51.1875 27.6719ZM50.4219 31.5H34.8906V28.9844H50.4219V31.5Z" fill="white"/>
<path d="M36.4831 52.7623C37.0024 52.7623 37.51 52.6083 37.9418 52.3198C38.3736 52.0313 38.7101 51.6212 38.9089 51.1414C39.1076 50.6616 39.1596 50.1337 39.0583 49.6244C38.9569 49.115 38.7069 48.6472 38.3396 48.28C37.9724 47.9128 37.5046 47.6627 36.9952 47.5614C36.4859 47.4601 35.958 47.5121 35.4782 47.7109C34.9984 47.9096 34.5884 48.2462 34.2999 48.678C34.0114 49.1098 33.8574 49.6174 33.8574 50.1368C33.8582 50.8329 34.1351 51.5002 34.6274 51.9925C35.1196 52.4847 35.787 52.7615 36.4831 52.7623V52.7623ZM36.4831 48.8236C36.7428 48.8236 36.9967 48.9006 37.2126 49.0449C37.4286 49.1892 37.5969 49.3943 37.6963 49.6342C37.7957 49.8742 37.8217 50.1382 37.771 50.3929C37.7203 50.6477 37.5953 50.8817 37.4116 51.0653C37.228 51.249 36.994 51.374 36.7393 51.4247C36.4845 51.4754 36.2205 51.4494 35.9806 51.35C35.7406 51.2506 35.5355 51.0823 35.3912 50.8663C35.2469 50.6504 35.1699 50.3965 35.1699 50.1368C35.1702 49.7886 35.3087 49.4547 35.5549 49.2085C35.8011 48.9623 36.1349 48.8238 36.4831 48.8234V48.8236Z" fill="white"/>
<path d="M42.7126 52.7623C43.2319 52.7623 43.7395 52.6083 44.1713 52.3198C44.6031 52.0313 44.9396 51.6212 45.1384 51.1414C45.3371 50.6616 45.3891 50.1337 45.2878 49.6244C45.1864 49.115 44.9364 48.6472 44.5691 48.28C44.2019 47.9128 43.7341 47.6627 43.2247 47.5614C42.7154 47.4601 42.1875 47.5121 41.7077 47.7109C41.2279 47.9096 40.8179 48.2462 40.5294 48.678C40.2409 49.1098 40.0869 49.6174 40.0869 50.1368C40.0877 50.8329 40.3646 51.5002 40.8569 51.9925C41.3491 52.4847 42.0165 52.7615 42.7126 52.7623V52.7623ZM42.7126 48.8236C42.9723 48.8236 43.2262 48.9006 43.4421 49.0449C43.6581 49.1892 43.8264 49.3943 43.9258 49.6342C44.0252 49.8742 44.0512 50.1382 44.0005 50.3929C43.9498 50.6477 43.8248 50.8817 43.6411 51.0653C43.4575 51.249 43.2235 51.374 42.9687 51.4247C42.714 51.4754 42.45 51.4494 42.21 51.35C41.9701 51.2506 41.765 51.0823 41.6207 50.8663C41.4764 50.6504 41.3994 50.3965 41.3994 50.1368C41.3997 49.7886 41.5382 49.4547 41.7844 49.2085C42.0306 48.9623 42.3644 48.8238 42.7126 48.8234V48.8236Z" fill="white"/>
<path d="M48.9411 52.7623C49.4604 52.7623 49.968 52.6083 50.3998 52.3198C50.8316 52.0313 51.1681 51.6212 51.3669 51.1414C51.5656 50.6616 51.6176 50.1337 51.5163 49.6244C51.4149 49.115 51.1649 48.6472 50.7977 48.28C50.4304 47.9128 49.9626 47.6627 49.4532 47.5614C48.9439 47.4601 48.416 47.5121 47.9362 47.7109C47.4564 47.9096 47.0464 48.2462 46.7579 48.678C46.4694 49.1098 46.3154 49.6174 46.3154 50.1368C46.3162 50.8329 46.5931 51.5002 47.0854 51.9925C47.5776 52.4847 48.245 52.7615 48.9411 52.7623V52.7623ZM48.9411 48.8236C49.2008 48.8236 49.4547 48.9006 49.6706 49.0449C49.8866 49.1892 50.0549 49.3943 50.1543 49.6342C50.2537 49.8742 50.2797 50.1382 50.229 50.3929C50.1783 50.6477 50.0533 50.8817 49.8696 51.0653C49.686 51.249 49.452 51.374 49.1973 51.4247C48.9425 51.4754 48.6785 51.4494 48.4386 51.35C48.1986 51.2506 47.9935 51.0823 47.8492 50.8663C47.7049 50.6504 47.6279 50.3965 47.6279 50.1368C47.6282 49.7886 47.7666 49.4547 48.0128 49.2085C48.259 48.9622 48.5929 48.8237 48.9411 48.8234V48.8236Z" fill="white"/>
<path d="M36.4831 46.9681C37.0024 46.9681 37.51 46.8141 37.9418 46.5256C38.3736 46.2371 38.7101 45.827 38.9089 45.3473C39.1076 44.8675 39.1596 44.3395 39.0583 43.8302C38.957 43.3209 38.7069 42.853 38.3397 42.4858C37.9725 42.1186 37.5047 41.8686 36.9953 41.7672C36.486 41.6659 35.9581 41.7179 35.4783 41.9167C34.9985 42.1154 34.5884 42.4519 34.2999 42.8837C34.0114 43.3155 33.8574 43.8232 33.8574 44.3425C33.8582 45.0386 34.1351 45.706 34.6273 46.1982C35.1196 46.6905 35.787 46.9673 36.4831 46.9681V46.9681ZM36.4831 43.0294C36.7428 43.0294 36.9967 43.1064 37.2127 43.2508C37.4287 43.3951 37.597 43.6002 37.6963 43.8402C37.7957 44.0802 37.8217 44.3442 37.771 44.599C37.7202 44.8537 37.5951 45.0877 37.4114 45.2713C37.2277 45.455 36.9936 45.58 36.7389 45.6306C36.4841 45.6812 36.22 45.6551 35.9801 45.5556C35.7402 45.4561 35.5351 45.2877 35.3909 45.0716C35.2467 44.8556 35.1698 44.6017 35.1699 44.3419C35.1705 43.9939 35.309 43.6602 35.5552 43.4142C35.8014 43.1682 36.135 43.0298 36.4831 43.0294V43.0294Z" fill="white"/>
<path d="M42.7126 46.9681C43.2319 46.9681 43.7395 46.8141 44.1713 46.5256C44.6031 46.2371 44.9396 45.827 45.1384 45.3473C45.3371 44.8675 45.3891 44.3395 45.2878 43.8302C45.1865 43.3209 44.9364 42.853 44.5692 42.4858C44.202 42.1186 43.7341 41.8686 43.2248 41.7672C42.7155 41.6659 42.1876 41.7179 41.7078 41.9167C41.228 42.1154 40.8179 42.4519 40.5294 42.8837C40.2409 43.3155 40.0869 43.8232 40.0869 44.3425C40.0877 45.0386 40.3646 45.706 40.8568 46.1982C41.3491 46.6905 42.0164 46.9673 42.7126 46.9681V46.9681ZM42.7126 43.0294C42.9723 43.0294 43.2262 43.1064 43.4422 43.2508C43.6582 43.3951 43.8265 43.6002 43.9258 43.8402C44.0252 44.0802 44.0512 44.3442 44.0005 44.599C43.9497 44.8537 43.8246 45.0877 43.6409 45.2713C43.4572 45.455 43.2231 45.58 42.9684 45.6306C42.7136 45.6812 42.4495 45.6551 42.2096 45.5556C41.9697 45.4561 41.7646 45.2877 41.6204 45.0716C41.4762 44.8556 41.3993 44.6017 41.3994 44.3419C41.4 43.9939 41.5385 43.6602 41.7847 43.4142C42.0308 43.1682 42.3645 43.0298 42.7126 43.0294V43.0294Z" fill="white"/>
<path d="M48.9411 46.9681C49.4604 46.9681 49.968 46.8141 50.3998 46.5256C50.8316 46.2371 51.1681 45.827 51.3669 45.3473C51.5656 44.8675 51.6176 44.3395 51.5163 43.8302C51.415 43.3209 51.1649 42.853 50.7977 42.4858C50.4305 42.1186 49.9627 41.8686 49.4533 41.7672C48.944 41.6659 48.4161 41.7179 47.9363 41.9167C47.4565 42.1154 47.0464 42.4519 46.7579 42.8837C46.4694 43.3155 46.3154 43.8232 46.3154 44.3425C46.3162 45.0386 46.5931 45.706 47.0853 46.1982C47.5776 46.6905 48.245 46.9673 48.9411 46.9681ZM48.9411 43.0294C49.2008 43.0294 49.4547 43.1064 49.6707 43.2508C49.8867 43.3951 50.055 43.6002 50.1543 43.8402C50.2537 44.0802 50.2797 44.3442 50.229 44.599C50.1782 44.8537 50.0531 45.0877 49.8694 45.2713C49.6857 45.455 49.4516 45.58 49.1969 45.6306C48.9421 45.6812 48.678 45.6551 48.4381 45.5556C48.1982 45.4561 47.9931 45.2877 47.8489 45.0716C47.7047 44.8556 47.6278 44.6017 47.6279 44.3419C47.6285 43.9939 47.767 43.6602 48.0132 43.4142C48.2593 43.1681 48.593 43.0298 48.9411 43.0294V43.0294Z" fill="white"/>
<path d="M36.4831 41.1747C37.0024 41.1747 37.51 41.0207 37.9418 40.7322C38.3736 40.4437 38.7101 40.0336 38.9089 39.5538C39.1076 39.074 39.1596 38.5461 39.0583 38.0368C38.957 37.5274 38.7069 37.0596 38.3397 36.6924C37.9725 36.3252 37.5047 36.0751 36.9953 35.9738C36.486 35.8725 35.9581 35.9245 35.4783 36.1232C34.9985 36.3219 34.5884 36.6585 34.2999 37.0903C34.0114 37.5221 33.8574 38.0297 33.8574 38.549C33.8582 39.2451 34.1351 39.9125 34.6273 40.4048C35.1196 40.897 35.787 41.1739 36.4831 41.1747V41.1747ZM36.4831 37.2358C36.7428 37.2358 36.9967 37.3129 37.2126 37.4572C37.4286 37.6014 37.5969 37.8065 37.6963 38.0465C37.7957 38.2864 37.8217 38.5505 37.771 38.8052C37.7203 39.0599 37.5953 39.2939 37.4116 39.4776C37.228 39.6612 36.994 39.7863 36.7393 39.8369C36.4845 39.8876 36.2205 39.8616 35.9806 39.7622C35.7406 39.6628 35.5355 39.4945 35.3912 39.2786C35.2469 39.0626 35.1699 38.8087 35.1699 38.549C35.1703 38.2009 35.3088 37.8671 35.555 37.6209C35.8012 37.3747 36.1349 37.2363 36.4831 37.2358V37.2358Z" fill="white"/>
<path d="M42.7126 41.1747C43.2319 41.1747 43.7395 41.0207 44.1713 40.7322C44.6031 40.4437 44.9396 40.0336 45.1384 39.5538C45.3371 39.074 45.3891 38.5461 45.2878 38.0368C45.1865 37.5274 44.9364 37.0596 44.5692 36.6924C44.202 36.3252 43.7341 36.0751 43.2248 35.9738C42.7155 35.8725 42.1876 35.9245 41.7078 36.1232C41.228 36.3219 40.8179 36.6585 40.5294 37.0903C40.2409 37.5221 40.0869 38.0297 40.0869 38.549C40.0877 39.2451 40.3646 39.9125 40.8568 40.4048C41.3491 40.897 42.0164 41.1739 42.7126 41.1747V41.1747ZM42.7126 37.2358C42.9723 37.2358 43.2262 37.3129 43.4421 37.4572C43.6581 37.6014 43.8264 37.8065 43.9258 38.0465C44.0252 38.2864 44.0512 38.5505 44.0005 38.8052C43.9498 39.0599 43.8248 39.2939 43.6411 39.4776C43.4575 39.6612 43.2235 39.7863 42.9688 39.8369C42.714 39.8876 42.45 39.8616 42.2101 39.7622C41.9701 39.6628 41.765 39.4945 41.6207 39.2786C41.4764 39.0626 41.3994 38.8087 41.3994 38.549C41.3998 38.2009 41.5383 37.8671 41.7845 37.6209C42.0307 37.3747 42.3644 37.2363 42.7126 37.2358V37.2358Z" fill="white"/>
<path d="M48.9411 41.1747C49.4604 41.1747 49.968 41.0207 50.3998 40.7322C50.8316 40.4437 51.1681 40.0336 51.3669 39.5538C51.5656 39.074 51.6176 38.5461 51.5163 38.0368C51.415 37.5274 51.1649 37.0596 50.7977 36.6924C50.4305 36.3252 49.9627 36.0751 49.4533 35.9738C48.944 35.8725 48.4161 35.9245 47.9363 36.1232C47.4565 36.3219 47.0464 36.6585 46.7579 37.0903C46.4694 37.5221 46.3154 38.0297 46.3154 38.549C46.3162 39.2451 46.5931 39.9125 47.0853 40.4048C47.5776 40.897 48.245 41.1739 48.9411 41.1747V41.1747ZM48.9411 37.2358C49.2008 37.2358 49.4547 37.3129 49.6706 37.4572C49.8866 37.6014 50.0549 37.8065 50.1543 38.0465C50.2537 38.2864 50.2797 38.5505 50.229 38.8052C50.1783 39.0599 50.0533 39.2939 49.8696 39.4776C49.686 39.6612 49.452 39.7863 49.1973 39.8369C48.9425 39.8876 48.6785 39.8616 48.4386 39.7622C48.1986 39.6628 47.9935 39.4945 47.8492 39.2786C47.7049 39.0626 47.6279 38.8087 47.6279 38.549C47.6283 38.2008 47.7668 37.8671 48.013 37.6209C48.2591 37.3747 48.5929 37.2362 48.9411 37.2358V37.2358Z" fill="white"/>
<path d="M24.2871 33.7969H17.4512C17.2771 33.7969 17.1102 33.866 16.9871 33.9891C16.8641 34.1122 16.7949 34.2791 16.7949 34.4531C16.7949 34.6272 16.8641 34.7941 16.9871 34.9172C17.1102 35.0402 17.2771 35.1094 17.4512 35.1094H24.2871C24.4612 35.1094 24.6281 35.0402 24.7511 34.9172C24.8742 34.7941 24.9434 34.6272 24.9434 34.4531C24.9434 34.2791 24.8742 34.1122 24.7511 33.9891C24.6281 33.866 24.4612 33.7969 24.2871 33.7969Z" fill="white"/>
<path d="M14.3262 35.1094H14.9934C15.1674 35.1094 15.3343 35.0402 15.4574 34.9172C15.5805 34.7941 15.6496 34.6272 15.6496 34.4531C15.6496 34.2791 15.5805 34.1122 15.4574 33.9891C15.3343 33.866 15.1674 33.7969 14.9934 33.7969H14.3262C14.1521 33.7969 13.9852 33.866 13.8621 33.9891C13.7391 34.1122 13.6699 34.2791 13.6699 34.4531C13.6699 34.6272 13.7391 34.7941 13.8621 34.9172C13.9852 35.0402 14.1521 35.1094 14.3262 35.1094V35.1094Z" fill="white"/>
<path d="M23.3129 39.375H19.7432C19.5691 39.375 19.4022 39.4441 19.2791 39.5672C19.1561 39.6903 19.0869 39.8572 19.0869 40.0312C19.0869 40.2053 19.1561 40.3722 19.2791 40.4953C19.4022 40.6184 19.5691 40.6875 19.7432 40.6875H23.3129C23.487 40.6875 23.6539 40.6184 23.777 40.4953C23.9001 40.3722 23.9692 40.2053 23.9692 40.0312C23.9692 39.8572 23.9001 39.6903 23.777 39.5672C23.6539 39.4441 23.487 39.375 23.3129 39.375Z" fill="white"/>
<path d="M17.1788 39.375H14.3262C14.1521 39.375 13.9852 39.4441 13.8621 39.5672C13.7391 39.6903 13.6699 39.8572 13.6699 40.0312C13.6699 40.2053 13.7391 40.3722 13.8621 40.4953C13.9852 40.6184 14.1521 40.6875 14.3262 40.6875H17.1788C17.3528 40.6875 17.5197 40.6184 17.6428 40.4953C17.7659 40.3722 17.835 40.2053 17.835 40.0312C17.835 39.8572 17.7659 39.6903 17.6428 39.5672C17.5197 39.4441 17.3528 39.375 17.1788 39.375Z" fill="white"/>
<path d="M11.7031 5.11938C11.5291 5.11938 11.3622 5.18853 11.2391 5.3116C11.116 5.43467 11.0469 5.60159 11.0469 5.77563V6.03956C11.0469 6.2136 11.116 6.38052 11.2391 6.5036C11.3622 6.62667 11.5291 6.69581 11.7031 6.69581C11.8772 6.69581 12.0441 6.62667 12.1672 6.5036C12.2902 6.38052 12.3594 6.2136 12.3594 6.03956V5.77563C12.3594 5.60159 12.2902 5.43467 12.1672 5.3116C12.0441 5.18853 11.8772 5.11938 11.7031 5.11938Z" fill="white"/>
<path d="M11.7031 7.94604C11.5291 7.94604 11.3622 8.01518 11.2391 8.13826C11.116 8.26133 11.0469 8.42825 11.0469 8.6023V17.2952C11.0469 17.4693 11.116 17.6362 11.2391 17.7592C11.3622 17.8823 11.5291 17.9515 11.7031 17.9515C11.8772 17.9515 12.0441 17.8823 12.1672 17.7592C12.2902 17.6362 12.3594 17.4693 12.3594 17.2952V8.6023C12.3594 8.42825 12.2902 8.26133 12.1672 8.13826C12.0441 8.01518 11.8772 7.94604 11.7031 7.94604Z" fill="white"/>
<path d="M25.2207 7.09351C23.3055 7.09351 21.4333 7.66144 19.8408 8.72549C18.2483 9.78954 17.0072 11.3019 16.2742 13.0714C15.5413 14.8408 15.3495 16.7879 15.7232 18.6663C16.0968 20.5448 17.0191 22.2702 18.3734 23.6245C19.7277 24.9788 21.4531 25.901 23.3316 26.2747C25.21 26.6483 27.1571 26.4566 28.9265 25.7236C30.696 24.9907 32.2083 23.7495 33.2724 22.1571C34.3364 20.5646 34.9044 18.6924 34.9044 16.7771C34.9015 14.2098 33.8803 11.7484 32.0649 9.93297C30.2495 8.11757 27.7881 7.0964 25.2207 7.09351V7.09351ZM33.577 16.297H26.6289L31.5817 11.3443C32.7721 12.7316 33.4732 14.4719 33.577 16.297V16.297ZM25.2207 8.40601C27.2138 8.40477 29.1413 9.11797 30.6536 10.4162L25.2239 15.8459L20.9508 9.58135C22.2418 8.81094 23.7174 8.40476 25.2207 8.40601V8.40601ZM25.2207 25.1481C23.4988 25.149 21.8186 24.6186 20.4092 23.6292C18.9999 22.6399 17.9301 21.2398 17.3458 19.62C16.7616 18.0002 16.6913 16.2396 17.1445 14.5784C17.5978 12.9172 18.5526 11.4363 19.8785 10.3378L24.6426 17.323C24.7028 17.4113 24.7837 17.4835 24.8782 17.5335C24.9726 17.5834 25.0779 17.6095 25.1848 17.6095H33.5503C33.3414 19.6742 32.374 21.5881 30.8353 22.9807C29.2966 24.3732 27.296 25.1456 25.2207 25.1481V25.1481Z" fill="white"/>
<path d="M51.4729 24.9375H42.6562V10.7996C42.6595 10.3201 42.4739 9.85856 42.1396 9.51486L33.9341 1.10184C33.7634 0.926847 33.5596 0.787635 33.3344 0.692346C33.1093 0.597057 32.8674 0.547603 32.623 0.546875H9.67006C9.43104 0.548298 9.19469 0.59715 8.97469 0.6906C8.75469 0.784049 8.55543 0.920237 8.38846 1.09127C8.22149 1.2623 8.09012 1.46477 8.00198 1.68695C7.91384 1.90913 7.87068 2.14659 7.875 2.38558V4.15625H6.12916C5.8872 4.15125 5.64665 4.19421 5.42139 4.28265C5.19612 4.37109 4.99059 4.50325 4.81666 4.67152C4.64431 4.83642 4.50676 5.03418 4.41212 5.25313C4.31748 5.47207 4.26766 5.70776 4.26562 5.94628V7H2.94219C2.70118 6.99543 2.46167 7.03884 2.2376 7.12772C2.01352 7.21659 1.80937 7.34915 1.63702 7.51767C1.46568 7.68341 1.32933 7.88182 1.23602 8.10117C1.1427 8.32052 1.09433 8.55636 1.09375 8.79473V52.3891C1.09551 52.8802 1.29061 53.3508 1.63681 53.6991C1.983 54.0474 2.45245 54.2453 2.9435 54.25H31.1709C31.4825 54.6267 31.8735 54.93 32.3159 55.138C32.7584 55.3459 33.2414 55.4536 33.7303 55.4531H51.4729C52.3544 55.4531 53.1999 55.1029 53.8233 54.4795C54.4466 53.8561 54.7968 53.0107 54.7969 52.1291V28.2615C54.7968 27.3799 54.4466 26.5345 53.8233 25.9111C53.1999 25.2877 52.3544 24.9375 51.4729 24.9375ZM33.5781 2.61505L40.4789 9.73438H36.9004C36.4621 9.73091 36.0289 9.6408 35.6255 9.46923C35.2222 9.29767 34.8568 9.04803 34.5504 8.73469C33.9248 8.10253 33.5752 7.24828 33.5781 6.35895V2.61505ZM5.57812 5.94552C5.58068 5.87928 5.59687 5.81429 5.62569 5.75459C5.6545 5.6949 5.69531 5.64179 5.74558 5.59858C5.85169 5.50624 5.99 5.45958 6.13036 5.46875H7.875V46.0985C7.87092 46.3361 7.91452 46.572 8.0032 46.7924C8.09189 47.0129 8.22388 47.2133 8.39135 47.3818C8.55882 47.5503 8.75839 47.6836 8.97825 47.7737C9.19811 47.8637 9.43379 47.9088 9.67138 47.9062H30.4062V49.9844H6.1308C5.98489 49.9769 5.84711 49.9149 5.74475 49.8107C5.6424 49.7064 5.58292 49.5675 5.57812 49.4215V5.94552ZM2.94383 52.9375C2.80128 52.9337 2.66583 52.8744 2.56627 52.7723C2.46526 52.67 2.40789 52.5325 2.40625 52.3888V8.79375C2.40737 8.72765 2.42214 8.6625 2.44964 8.60238C2.47714 8.54226 2.51677 8.48848 2.56605 8.44441C2.61707 8.39848 2.67672 8.36317 2.74152 8.34052C2.80632 8.31788 2.87498 8.30835 2.9435 8.3125H4.26562V49.4217C4.27083 49.9157 4.46865 50.388 4.81694 50.7383C5.16523 51.0885 5.63649 51.2889 6.13036 51.2969H30.4062V52.1291C30.4062 52.4016 30.4396 52.6731 30.5058 52.9375H2.94383ZM30.4062 28.2615V34.0981C30.3469 34.0057 30.2654 33.9297 30.169 33.8771C30.0727 33.8245 29.9647 33.7969 29.8549 33.7969H27.3992C27.2252 33.7969 27.0582 33.866 26.9352 33.9891C26.8121 34.1122 26.743 34.2791 26.743 34.4531C26.743 34.6272 26.8121 34.7941 26.9352 34.9172C27.0582 35.0402 27.2252 35.1094 27.3992 35.1094H29.8549C29.9647 35.1094 30.0727 35.0818 30.169 35.0291C30.2654 34.9765 30.3469 34.9005 30.4062 34.8082V39.375H25.8361C25.6621 39.375 25.4952 39.4441 25.3721 39.5672C25.249 39.6903 25.1799 39.8572 25.1799 40.0312C25.1799 40.2053 25.249 40.3722 25.3721 40.4953C25.4952 40.6184 25.6621 40.6875 25.8361 40.6875H30.4062V46.5938H9.6717C9.60676 46.5966 9.54194 46.5858 9.48148 46.5619C9.42102 46.538 9.36628 46.5017 9.32083 46.4552C9.27494 46.4083 9.23937 46.3523 9.21641 46.2908C9.19345 46.2294 9.1836 46.1638 9.1875 46.0983V2.38437C9.18313 2.31775 9.19235 2.25093 9.2146 2.18798C9.23684 2.12502 9.27164 2.06724 9.31689 2.01815C9.36214 1.96905 9.4169 1.92966 9.47783 1.90237C9.53877 1.87507 9.60462 1.86045 9.67138 1.85938H32.2656V6.35863C32.2631 7.59344 32.7488 8.77918 33.6169 9.65739C34.485 10.5356 35.665 11.035 36.8997 11.0469H41.3438V24.9375H33.7303C32.8487 24.9375 32.0032 25.2877 31.3799 25.9111C30.7565 26.5345 30.4063 27.3799 30.4062 28.2615V28.2615ZM53.5938 52.1291C53.5902 52.6638 53.3753 53.1753 52.996 53.5521C52.6167 53.929 52.1038 54.1405 51.5691 54.1406H33.7831C32.6739 54.1406 31.7188 53.2383 31.7188 52.1291V35.1094H53.5938V52.1291ZM53.5938 33.7969H31.7188V28.2638C31.7188 27.1546 32.6739 26.25 33.7831 26.25H51.5691C52.104 26.2506 52.617 26.4626 52.9962 26.8399C53.3755 27.2171 53.5903 27.7289 53.5938 28.2638V33.7969Z" fill="white"/>
</svg>
