<?xml version="1.0" encoding="utf-8"?>
<!-- Generator: Adobe Illustrator 23.0.3, SVG Export Plug-In . SVG Version: 6.00 Build 0)  -->
<svg version="1.1" id="Logo" xmlns="http://www.w3.org/2000/svg" xmlns:xlink="http://www.w3.org/1999/xlink" x="0px" y="0px"
	 viewBox="0 0 127 46" style="enable-background:new 0 0 127 46;" xml:space="preserve">
<style type="text/css">
	.st0{fill:#E31837;}
	.st1{fill:#012169;}
</style>
<g>
	<path class="st0" d="M61.1,27.5c6.5-5.6,15.7-11.1,20.8-13c-0.8-0.5-2-1.2-3.4-2c-6.5,2.1-14.1,6.9-20.9,12.3
		C58.8,25.6,60,26.5,61.1,27.5L61.1,27.5z"/>
	<path class="st1" d="M58.1,12.2c-1-0.5-2-0.9-2.8-1.3c-2.5,1.2-5.7,3.1-9.7,5.9c0.9,0.5,1.8,1,2.8,1.6C51.5,16.2,54.6,14,58.1,12.2
		z"/>
	<path class="st0" d="M63.9,9.6c-1.2-0.7-5.3-2.2-8.1-2.8C55,7,53.8,7.5,53,7.8c1,0.3,4.9,1.3,8.1,3C61.9,10.4,63.1,9.9,63.9,9.6z"
		/>
	<path class="st1" d="M50,9.1c-3.6,1.7-7.5,4-9.6,5.3c0.7,0.3,1.5,0.6,2.5,1.1c4.6-3.1,8.2-5,9.7-5.6C51.6,9.6,50.6,9.3,50,9.1
		L50,9.1z"/>
	<path class="st0" d="M66.7,8.6c0.8-0.3,1.8-0.5,2.6-0.8c-2.4-1-5.5-2.1-8.2-2.8c-0.4,0.1-1.7,0.5-2.6,0.7C59.4,6,62.5,6.8,66.7,8.6
		z M51.3,20.3c1,0.6,2.1,1.4,3.1,2.1c6.8-5.3,13.5-9.4,20.9-11.7c-1-0.5-1.9-1-3.1-1.6C67.8,10.3,60.3,13.3,51.3,20.3z"/>
	<path class="st1" d="M1.4,41.1h3.5c1.8,0,2.6-0.9,2.6-2.2c0-1-0.5-1.7-1.7-2c1-0.2,1.5-0.8,1.5-1.7c0-1.1-0.8-2-2.6-2H1.4L1.4,41.1
		L1.4,41.1z M4.5,37.8c0.7,0,1.1,0.3,1.1,1c0,0.7-0.4,1-1.1,1H3.3v-2L4.5,37.8L4.5,37.8z M4.2,34.6c0.7,0,1.1,0.3,1.1,0.9
		c0,0.7-0.4,0.9-1.1,0.9H3.3v-1.9H4.2z M14.5,33.2h-2l-3,8h2l0.5-1.7H15l0.5,1.7h2C17.5,41.1,14.5,33.2,14.5,33.2z M13.5,35.1
		l0.9,2.9h-1.9C12.6,38,13.5,35.1,13.5,35.1z M27.5,33.2h-1.8v5.3l-3.4-5.3h-2v8H22v-5.3l3.4,5.3h2C27.5,41.1,27.5,33.2,27.5,33.2z
		 M35.8,41.1l-2.6-4v4h-1.9v-8h1.9V37l2.5-3.8h2.2L35.2,37l2.9,4.1H35.8z M44.9,37.2c0,1.6,1,2.6,2.2,2.6c1.2,0,2.2-1,2.2-2.6
		s-1-2.6-2.2-2.6S44.9,35.6,44.9,37.2z M42.9,37.2c0-2.3,1.7-4.2,4.2-4.2c2.6,0,4.2,1.8,4.2,4.2c0,2.3-1.7,4.2-4.2,4.2
		C44.5,41.3,42.9,39.5,42.9,37.2z M54,41.1h1.9V38h2.5v-1.5h-2.5v-1.8h3l0.3-1.5H54L54,41.1L54,41.1z M68.4,33.2h-2l-3,8h2l0.5-1.7
		h2.9l0.5,1.7h2L68.4,33.2L68.4,33.2z M67.4,35.1l0.9,2.9h-1.9L67.4,35.1z M82.9,33.2h-2.3l-2.1,4.3l-2.1-4.3h-2.3v8h1.7v-5.3
		l2.6,5.3l2.6-5.3v5.3h1.8L82.9,33.2z M86.6,41.1h5.4v-1.5h-3.5v-1.8h2.8v-1.5h-2.8v-1.7h3.2l0.3-1.5h-5.5V41.1z M99.4,41.1h2.1
		l-2-3.4c1.1-0.3,1.6-1.1,1.6-2.2c0-1.4-0.9-2.4-2.8-2.4h-3.1v8h1.9V38h0.5L99.4,41.1L99.4,41.1z M98,34.7c0.8,0,1.2,0.3,1.2,1
		s-0.4,1-1.2,1h-0.8v-2C97.1,34.7,98,34.7,98,34.7z M104.4,41.1h1.9v-7.9h-1.9V41.1z M115.9,39c-0.7,0.5-1.4,0.7-2.1,0.7
		c-1.5,0-2.5-1-2.5-2.5s1-2.5,2.5-2.5c0.7,0,1.3,0.2,2,0.7v-1.8c-0.7-0.4-1.4-0.5-2.3-0.5c-2.6,0-4.3,1.8-4.3,4.2
		c0,2.4,1.6,4.2,4.3,4.2c0.9,0,1.7-0.2,2.4-0.5L115.9,39L115.9,39L115.9,39z M123,33.2h-2l-3,8h2l0.5-1.7h2.9l0.5,1.7h2L123,33.2
		L123,33.2z M122,35.1L123,38H121L122,35.1z"/>
</g>
</svg>
