<?xml version="1.0" encoding="utf-8"?>
<!-- Generator: Adobe Illustrator 23.0.3, SVG Export Plug-In . SVG Version: 6.00 Build 0)  -->
<svg version="1.1" id="Logo" xmlns="http://www.w3.org/2000/svg" xmlns:xlink="http://www.w3.org/1999/xlink" x="0px" y="0px"
	 viewBox="0 0 127 46" style="enable-background:new 0 0 127 46;" xml:space="preserve">
<style type="text/css">
	.st0{fill:#1C62B7;}
</style>
<g id="layer1" transform="translate(222.6327,-275.4212)">
	<g id="g2901" transform="translate(5.314294,5.30821)">
		<path id="path2677" class="st0" d="M-215,315h-3.7v-11.3h3.7c3.9,0,6,1.9,6,5.7C-209.1,313-210.8,315-215,315z M-215.3,305.4h-1.2
			v7.9h1.2c3,0.1,4-1.4,4-3.9C-211.3,306.6-212.7,305.4-215.3,305.4"/>
		<path id="path2679" class="st0" d="M-205.7,310.2c0.1-1,0.6-2,1.7-2c1.1,0,1.7,0.8,1.6,2H-205.7z M-203.9,306.9
			c-2.9,0-4,2.1-4,4.1c0,2.4,1.2,4.1,3.7,4.2c2,0,3.8-0.6,3.9-2.8h-2c0,0.9-0.7,1.5-1.5,1.5c-1.4,0-1.9-1.1-1.9-2.3l5.6,0
			C-200,309.2-201,306.9-203.9,306.9"/>
		<path id="path2681" class="st0" d="M-191.1,315h-2.1l0-1.3c-0.4,1-1.3,1.5-2.5,1.5c-1.4,0-2.8-0.9-2.8-3v-5.1h2.1v4.8
			c0,1.1,0.4,1.8,1.5,1.8c0.9,0,1.7-0.5,1.7-2.1v-4.5h2.1V315"/>
		<path id="path2683" class="st0" d="M-188.3,307.2V306l2.1-1.1v2.3h2v1.5h-2v3.8c0,0.8,0.3,1.2,1,1.2c0.3,0,0.6,0,0.9-0.1v1.4
			c-1,0.1-2.2,0.4-3.1-0.1c-0.7-0.4-0.9-1.1-0.9-2.2v-4h-1.7v-1.5H-188.3"/>
		<path id="path2685" class="st0" d="M-176.3,311.7c0.3,0.7,0.3,1.6-0.1,2.2c-0.7,1.1-2.3,1.4-3.5,1.4c-1.7-0.1-3.3-0.6-3.2-2.7h2.1
			c0,0.9,0.5,1.2,1.3,1.3c0.8,0,1.5-0.3,1.5-1c0-0.6-0.5-0.8-1.2-1c-0.8-0.2-1.4-0.3-2.2-0.6c-0.7-0.3-1.4-0.9-1.4-2
			c0-0.9,0.7-1.6,1.6-2c0.6-0.3,1.4-0.3,2-0.3c1.5,0,3.1,0.5,3,2.4h-2c0-0.3-0.1-0.6-0.3-0.8c-0.4-0.4-1.8-0.4-2.2,0.2
			c-0.5,1.1,1,1.2,2.6,1.6C-177.3,310.6-176.6,311-176.3,311.7"/>
		<path id="path2687" class="st0" d="M-171,306.9c1.7,0,3.4,0.8,3.4,2.9l-2.1,0c0-1-0.5-1.6-1.6-1.6c-0.3,0-0.5,0.1-0.8,0.2
			c-0.6,0.4-0.8,1.4-0.8,2.5c0,1.1,0.3,2.2,0.7,2.6c0.3,0.3,0.9,0.4,1.4,0.3c0.8-0.1,1.1-1,1.1-1.7l2,0c0,2.2-1.8,3.1-3.7,3.1
			c-2.5-0.1-3.7-1.8-3.7-4.2C-174.9,308.5-173.5,306.9-171,306.9"/>
		<path id="path2689" class="st0" d="M-165.9,303.7h2.1v4.7c0.6-1,1.4-1.4,2.5-1.4c1.4,0,2.8,1.1,2.8,2.6v5.4h-2.1v-4.8
			c0-1.1-0.4-1.8-1.5-1.8c-0.9,0-1.7,0.6-1.7,2.1v4.5h-2.1V303.7"/>
		<path id="path2691" class="st0" d="M-154.7,310.2c0.1-1,0.6-2,1.7-2c1.1,0,1.7,0.8,1.6,2H-154.7z M-152.9,306.9
			c-2.9,0-4,2.1-4,4.1c0,2.4,1.2,4.1,3.7,4.2c2,0,3.8-0.6,3.9-2.8h-2c0,0.9-0.7,1.5-1.5,1.5c-1.4,0-1.9-1.1-1.9-2.3l5.6,0
			C-148.9,309.2-149.9,306.9-152.9,306.9"/>
		<path id="path2693" class="st0" d="M-135.9,314.7c-0.7,0.2-1.7,0.3-2.7,0.3h-4v-11.3h4.3c1.9,0,3.9,0.6,4,2.8c0,1.4-0.9,2.3-2,2.7
			c0.9,0.2,1.6,0.5,2.1,1.4c0.4,0.8,0.5,1.8,0.1,2.6C-134.5,313.9-135.1,314.4-135.9,314.7z M-138.3,305.4h-2.2v2.9h2.2
			c1.2,0,1.8-0.5,1.8-1.4C-136.5,306-137.2,305.4-138.3,305.4z M-138.1,310l-2.4,0v3.3h2.3c1.5,0,2-0.8,2-1.7
			C-136.1,310.9-136.7,310-138.1,310"/>
		<path id="path2695" class="st0" d="M-129.2,313.9c-0.8-0.1-1.3-0.5-1.3-1.2c0-1.6,2.1-1.5,3.1-1.5
			C-127.2,312.5-127.3,313.9-129.2,313.9z M-125.3,309.3c0-1.6-1.7-2.4-3.7-2.4c-1.9,0-3.2,0.6-3.3,2.5h2.1c0-0.8,0.5-1.3,1.3-1.3
			c1.1,0,1.7,0.5,1.5,1.9c-1.1,0.1-2.6,0-3.8,0.5c-0.8,0.4-1.5,1.1-1.5,2.3c0,1.5,1,2.4,2.5,2.5c1.1,0.1,2.3-0.4,2.8-1.4l0.1,1.1
			h1.8C-125.3,313.1-125.3,311.3-125.3,309.3"/>
		<path id="path2697" class="st0" d="M-123.2,307.2h2.1v1.3c0.6-1,1.6-1.5,2.7-1.5c1.3,0,2.6,0.8,2.6,2.6v5.4h-2.1v-4.8
			c0-1-0.5-1.8-1.5-1.8c-1,0-1.7,0.6-1.7,2.1v4.5h-2.1V307.2"/>
		<path id="path2699" class="st0" d="M-108.3,315l-3.3-4.5l2.9-3.3h2.5l-3,3.3l3.6,4.6H-108.3z M-113.7,303.7h2.1V315h-2.1V303.7z"
			/>
		<path id="path2701" class="st0" d="M-175.8,270.9h27.2v27.7h-27.2V270.9z M-159.3,277.5l-10.6,14.5h4.8l10.7-14.5H-159.3z
			 M-172,294.8h19.6v-20H-172V294.8z"/>
	</g>
</g>
</svg>
