<svg width="56" height="56" viewBox="0 0 56 56" fill="none" xmlns="http://www.w3.org/2000/svg">
    <g clip-path="url(#clip0)">
        <path d="M39.7268 40.3157H16.2744C15.8213 40.3157 15.4541 40.683 15.4541 41.136C15.4541 41.589 15.8213 41.9563 16.2744 41.9563H39.7268C40.18 41.9563 40.5471 41.589 40.5471 41.136C40.5471 40.683 40.1799 40.3157 39.7268 40.3157Z"
              fill="white"/>
        <path d="M40.5471 44.6892C40.5471 44.2362 40.18 43.8689 39.7268 43.8689H16.2744C15.8213 43.8689 15.4541 44.2362 15.4541 44.6892C15.4541 45.1422 15.8213 45.5095 16.2744 45.5095H39.7268C40.1799 45.5095 40.5471 45.1422 40.5471 44.6892Z"
              fill="white"/>
        <path d="M19.7041 47.4224C19.251 47.4224 18.8838 47.7896 18.8838 48.2427C18.8838 48.6957 19.251 49.063 19.7041 49.063H36.2951C36.7482 49.063 37.1154 48.6957 37.1154 48.2427C37.1154 47.7896 36.7482 47.4224 36.2951 47.4224H19.7041Z"
              fill="white"/>
        <path d="M40.6114 19.6284L45.5401 17.8297C45.9863 17.6668 46.2746 17.2546 46.2746 16.7796C46.2746 16.3046 45.9862 15.8926 45.5401 15.7297L29.2859 9.79766C28.4565 9.49491 27.5428 9.4948 26.7133 9.79766L10.4593 15.7296C10.013 15.8923 9.72461 16.3045 9.72461 16.7796C9.72461 17.2547 10.0129 17.6668 10.4592 17.8297L15.3878 19.6284V29.3243C15.3878 29.9638 15.6699 30.5707 16.1021 30.9787C16.5303 31.3825 17.005 31.7627 17.5188 32.1181C17.5186 32.1182 17.5184 32.1184 17.5182 32.1185C16.9664 32.6601 16.65 33.4112 16.65 34.1793V34.7313C16.65 34.9748 16.7263 35.2064 16.8594 35.3985L16.0622 37.2362C15.882 37.6519 16.0727 38.135 16.4883 38.3152C16.9035 38.4955 17.3868 38.3049 17.5673 37.8891L18.3185 36.1574C18.4258 36.1917 18.5342 36.2214 18.6436 36.2457V38.0924C18.6436 38.5455 19.0107 38.9127 19.4639 38.9127C19.917 38.9127 20.2842 38.5455 20.2842 38.0924V36.2457C20.3936 36.2212 20.5019 36.1917 20.6091 36.1574L21.3604 37.8891C21.541 38.3053 22.0244 38.4954 22.4394 38.3152C22.8551 38.135 23.0459 37.6519 22.8655 37.2362L22.0683 35.3985C22.2014 35.2064 22.2779 34.9747 22.2779 34.7312V34.3078C24.0764 34.819 26.0269 35.087 27.9995 35.087C32.1877 35.087 36.881 33.8232 39.8971 30.9784C40.3306 30.5693 40.6112 29.9576 40.6112 29.3241C40.6114 28.2274 40.6114 20.7398 40.6114 19.6284V19.6284ZM27.2757 11.3389C27.7425 11.1685 28.2567 11.1685 28.7234 11.3389L43.6317 16.7797C43.3544 16.8809 28.9796 22.127 28.7235 22.2204C28.2565 22.3908 27.7424 22.3907 27.2757 22.2204L21.5459 20.1293L26.2863 17.7879L26.7134 17.9438C27.1282 18.0951 27.5638 18.1708 27.9997 18.1708C28.4355 18.1708 28.8714 18.0951 29.286 17.9438L30.0426 17.6677C30.5039 17.4995 30.8138 17.0566 30.8138 16.5656V15.9614C30.8138 14.4385 29.5754 13.1763 28.0533 13.1478C27.3103 13.1342 26.5972 13.4196 26.054 13.9528C25.5022 14.4944 25.1858 15.2455 25.1858 16.0136V16.5019C19.2019 19.4574 19.5839 19.2611 19.4367 19.3596L12.3676 16.7797L27.2757 11.3389ZM26.8261 16.2385V16.0135C26.8261 15.6831 26.9635 15.3587 27.2029 15.1235C27.4291 14.9016 27.7168 14.7838 28.0222 14.788C28.6567 14.7999 29.1729 15.3262 29.1729 15.9612V16.2384L28.7234 16.4025C28.2566 16.5729 27.7425 16.5728 27.2758 16.4025L26.8261 16.2385ZM18.6437 27.0024C18.1264 26.6597 17.6515 26.2877 17.2278 25.8881C17.1011 25.7685 17.0284 25.6005 17.0284 25.4273V20.2273L18.6449 20.8173C18.643 20.9228 18.6437 20.1073 18.6437 27.0024ZM18.2905 34.4044C18.2905 34.171 18.2475 33.7015 18.6673 33.2893C18.9073 33.0539 19.2062 32.9489 19.4865 32.9539C20.3287 32.9699 20.6372 33.5652 20.6372 34.4043C19.6517 34.764 19.4752 34.8368 18.2905 34.4044V34.4044ZM18.6437 30.8991C18.1739 30.5879 17.7429 30.254 17.3543 29.9006C17.2319 29.7893 17.0283 29.6393 17.0283 29.3243V27.8658C17.5261 28.2452 18.0681 28.5951 18.6437 28.9166V30.8991ZM21.6812 32.3971C21.3311 31.947 20.8482 31.6063 20.2843 31.4348V29.7109C22.0133 30.4318 23.9633 30.9132 26.0111 31.0993C26.4632 31.1399 26.8614 30.8079 26.9023 30.3567C26.9434 29.9055 26.6109 29.5065 26.1598 29.4655C24.0171 29.2707 22.0007 28.733 20.2842 27.9224V21.4154L26.7132 23.7617C27.1179 23.9094 27.5584 23.9888 27.9995 23.9888C28.4511 23.9887 28.8921 23.9053 29.2857 23.7617H29.2858L38.9707 20.2273V25.4273C38.9707 25.6005 38.8981 25.7685 38.7713 25.8881C36.7094 27.833 33.4539 29.1369 29.8393 29.4656C29.3881 29.5066 29.0556 29.9056 29.0967 30.3568C29.1376 30.808 29.5363 31.1407 29.9879 31.0994C33.4665 30.7831 36.6678 29.6214 38.9707 27.8659V29.3244C38.9707 29.5047 38.8904 29.6729 38.7713 29.7852C36.0463 32.3556 31.7569 33.4467 27.9996 33.4467C25.785 33.4465 23.6065 33.0842 21.6812 32.3971V32.3971Z"
              fill="white"/>
        <path d="M9.78464 56H46.2152C48.0198 56 49.488 54.5319 49.488 52.7272V30.3514C49.488 29.8984 49.1209 29.5311 48.6677 29.5311C48.2146 29.5311 47.8474 29.8984 47.8474 30.3514V52.7272C47.8474 53.6272 47.1153 54.3594 46.2152 54.3594H9.78464C8.8846 54.3594 8.15234 53.6272 8.15234 52.7272V6.7063H47.8474V26.5233C47.8474 26.9764 48.2146 27.3436 48.6677 27.3436C49.1209 27.3436 49.488 26.9764 49.488 26.5233C49.488 25.7387 49.488 4.38975 49.488 3.27282C49.488 1.46835 48.0201 0 46.2152 0C45.2309 0 10.1106 0 9.78464 0C7.97996 0 6.51172 1.46813 6.51172 3.27282V52.7271C6.51172 54.5319 7.97996 56 9.78464 56V56ZM47.8474 3.27282V5.06568H14.7054V1.64062H46.2152C47.1149 1.64062 47.8474 2.37255 47.8474 3.27282V3.27282ZM8.15234 3.27282C8.15234 2.54154 8.63566 1.92105 9.29979 1.71412C9.45302 1.66632 9.61588 1.64062 9.78464 1.64062H13.0648V5.06568H8.15234V3.27282Z"
              fill="white"/>
    </g>
    <defs>
        <clipPath id="clip0">
            <rect width="56" height="56" fill="white"/>
        </clipPath>
    </defs>
</svg>
