<svg width="56" height="56" viewBox="0 0 56 56" fill="none" xmlns="http://www.w3.org/2000/svg">
<g clip-path="url(#clip0)">
<path d="M55.892 30.5869C55.3892 25.5295 53.1298 20.7617 49.5298 17.1616C46.4533 14.0851 42.6877 12.1081 38.7254 11.2291V8.45003C40.3437 8.04742 41.5466 6.58253 41.5466 4.84137C41.5466 2.79077 39.8784 1.12256 37.8278 1.12256H29.9527C27.9021 1.12256 26.2339 2.79077 26.2339 4.84137C26.2339 6.58242 27.4368 8.04731 29.055 8.45003V11.2368C25.1049 12.1196 21.3518 14.0939 18.284 17.1617C17.6126 17.833 16.9935 18.5373 16.4269 19.2692C16.3994 19.2672 16.3719 19.2651 16.3439 19.2651H8.54965C7.94567 19.2651 7.45588 19.7548 7.45588 20.3589C7.45588 20.9629 7.94567 21.4526 8.54965 21.4526H14.9386C14.1366 22.7952 13.49 24.2052 12.9978 25.6566H1.09377C0.489789 25.6566 0 26.1463 0 26.7504C0 27.3545 0.489789 27.8442 1.09377 27.8442H12.3797C12.0645 29.2279 11.8836 30.6361 11.8369 32.0483H7.00011C6.39613 32.0483 5.90634 32.538 5.90634 33.142C5.90634 33.7461 6.39613 34.2358 7.00011 34.2358H11.8717C11.9641 35.6516 12.1917 37.0599 12.5547 38.4399H5.46884C4.86486 38.4399 4.37507 38.9296 4.37507 39.5337C4.37507 40.1378 4.86486 40.6275 5.46884 40.6275H13.2527C14.3257 43.4659 16.0026 46.1263 18.284 48.4076C21.8875 52.0112 26.6602 54.2711 31.7229 54.7713C32.4454 54.8426 33.1685 54.8779 33.8906 54.8779C38.1587 54.8779 42.3725 53.6427 45.9481 51.3143C46.4543 50.9847 46.5974 50.3071 46.2678 49.8009C45.9381 49.2947 45.2605 49.1515 44.7543 49.4812C36.9277 54.5778 26.4458 53.4758 19.8308 46.8608C12.0692 39.0992 12.0692 26.4703 19.8308 18.7086C27.5922 10.9471 40.2212 10.9471 47.9829 18.7086C54.5892 25.3149 55.6971 35.7879 50.6174 43.6107C50.2884 44.1173 50.4324 44.7948 50.9389 45.1237C51.4458 45.4527 52.123 45.3087 52.4519 44.802C55.166 40.6222 56.3877 35.5739 55.892 30.5869ZM28.4214 4.84148C28.4214 3.99709 29.1083 3.3102 29.9527 3.3102H37.8278C38.6722 3.3102 39.3591 3.99709 39.3591 4.84148C39.3591 5.68586 38.6722 6.37275 37.8278 6.37275H37.6316H30.1488H29.9527C29.1083 6.37275 28.4214 5.68575 28.4214 4.84148ZM31.2426 10.8608V8.56028H36.5378V10.8569C34.7795 10.6477 33.0006 10.649 31.2426 10.8608Z" fill="white"/>
<path d="M48.7568 46.54C48.4681 46.54 48.187 46.6571 47.9837 46.8605C47.7791 47.0639 47.6631 47.3461 47.6631 47.6338C47.6631 47.9214 47.7791 48.2036 47.9837 48.4071C48.187 48.6116 48.4682 48.7275 48.7568 48.7275C49.0445 48.7275 49.3256 48.6116 49.5301 48.4071C49.7336 48.2036 49.8506 47.9214 49.8506 47.6338C49.8506 47.3461 49.7337 47.0639 49.5301 46.8605C49.3256 46.6571 49.0444 46.54 48.7568 46.54Z" fill="white"/>
<path d="M33.907 15.8169C24.5511 15.8169 16.9395 23.4284 16.9395 32.7844C16.9395 42.1404 24.5511 49.7519 33.907 49.7519C43.2628 49.7519 50.8745 42.1404 50.8745 32.7844C50.8745 23.4284 43.2628 15.8169 33.907 15.8169ZM33.907 47.5644C25.7572 47.5644 19.127 40.9341 19.127 32.7844C19.127 24.6347 25.7572 18.0044 33.907 18.0044C42.0567 18.0044 48.6869 24.6347 48.6869 32.7844C48.6869 40.9341 42.0567 47.5644 33.907 47.5644Z" fill="white"/>
<path d="M40.8256 24.3191L35.4082 29.7364C34.9551 29.5124 34.4456 29.3859 33.9069 29.3859C33.3681 29.3859 32.8586 29.5124 32.4056 29.7364L29.981 27.3119C29.5538 26.8848 28.8614 26.8848 28.4341 27.3119C28.007 27.739 28.007 28.4316 28.4341 28.8587L30.8587 31.2832C30.6345 31.7363 30.5081 32.2459 30.5081 32.7846C30.5081 34.6586 32.0327 36.1833 33.9069 36.1833C35.781 36.1833 37.3056 34.6586 37.3056 32.7846C37.3056 32.2459 37.1791 31.7363 36.9551 31.2832L42.2135 26.0248L42.3724 25.8659C42.7995 25.4388 42.7995 24.7462 42.3724 24.3191C41.9453 23.892 41.2529 23.892 40.8256 24.3191ZM33.9069 33.9959C33.239 33.9959 32.6956 33.4525 32.6956 32.7847C32.6956 32.1168 33.239 31.5734 33.9069 31.5734C34.5747 31.5734 35.1181 32.1168 35.1181 32.7847C35.1181 33.4525 34.5747 33.9959 33.9069 33.9959Z" fill="white"/>
<path d="M45.6013 31.7041H44.5879C43.9839 31.7041 43.4941 32.1938 43.4941 32.7979C43.4941 33.4019 43.9839 33.8916 44.5879 33.8916H45.6013C46.2052 33.8916 46.695 33.4019 46.695 32.7979C46.695 32.1938 46.2052 31.7041 45.6013 31.7041Z" fill="white"/>
<path d="M23.2257 31.6772H22.2124C21.6084 31.6772 21.1187 32.1669 21.1187 32.771C21.1187 33.3751 21.6084 33.8647 22.2124 33.8647H23.2257C23.8296 33.8647 24.3194 33.3751 24.3194 32.771C24.3194 32.1669 23.8296 31.6772 23.2257 31.6772Z" fill="white"/>
<path d="M33.9199 23.1971C34.5239 23.1971 35.0137 22.7074 35.0137 22.1033V21.0901C35.0137 20.486 34.5239 19.9963 33.9199 19.9963C33.316 19.9963 32.8262 20.486 32.8262 21.0901V22.1033C32.8262 22.7074 33.316 23.1971 33.9199 23.1971Z" fill="white"/>
<path d="M33.8936 42.3721C33.2896 42.3721 32.7998 42.8617 32.7998 43.4658V44.4791C32.7998 45.0832 33.2896 45.5728 33.8936 45.5728C34.4975 45.5728 34.9873 45.0832 34.9873 44.4791V43.4658C34.9873 42.8617 34.4975 42.3721 33.8936 42.3721Z" fill="white"/>
<path d="M1.09375 38.4395C0.806094 38.4395 0.523906 38.5565 0.320469 38.7599C0.117031 38.9634 0 39.2455 0 39.5332C0 39.822 0.116922 40.103 0.320469 40.3065C0.524016 40.5099 0.806094 40.627 1.09375 40.627C1.38141 40.627 1.66359 40.5099 1.86692 40.3065C2.07036 40.103 2.1875 39.8209 2.1875 39.5332C2.1875 39.2455 2.07047 38.9634 1.86692 38.7599C1.66359 38.5565 1.38141 38.4395 1.09375 38.4395Z" fill="white"/>
</g>
<defs>
<clipPath id="clip0">
<rect width="56" height="56" fill="white"/>
</clipPath>
</defs>
</svg>
