<svg width="56" height="56" viewBox="0 0 56 56" fill="none" xmlns="http://www.w3.org/2000/svg">
<path d="M7 43.75H4.375C4.14294 43.75 3.92038 43.8422 3.75628 44.0063C3.59219 44.1704 3.5 44.3929 3.5 44.625C3.5 44.8571 3.59219 45.0796 3.75628 45.2437C3.92038 45.4078 4.14294 45.5 4.375 45.5H7C7.23206 45.5 7.45462 45.4078 7.61872 45.2437C7.78281 45.0796 7.875 44.8571 7.875 44.625C7.875 44.3929 7.78281 44.1704 7.61872 44.0063C7.45462 43.8422 7.23206 43.75 7 43.75V43.75Z" fill="white"/>
<path d="M10.5 43.75H9.625C9.39294 43.75 9.17038 43.8422 9.00628 44.0063C8.84219 44.1704 8.75 44.3929 8.75 44.625C8.75 44.8571 8.84219 45.0796 9.00628 45.2437C9.17038 45.4078 9.39294 45.5 9.625 45.5H10.5C10.7321 45.5 10.9546 45.4078 11.1187 45.2437C11.2828 45.0796 11.375 44.8571 11.375 44.625C11.375 44.3929 11.2828 44.1704 11.1187 44.0063C10.9546 43.8422 10.7321 43.75 10.5 43.75Z" fill="white"/>
<path d="M51.625 18.375H49.875V11.375C49.8738 10.4471 49.5046 9.55758 48.8485 8.90147C48.1924 8.24535 47.3029 7.87622 46.375 7.875H9.625C8.69706 7.87604 7.80743 8.24513 7.15128 8.90128C6.49513 9.55743 6.12604 10.4471 6.125 11.375V27.125H4.375C3.44706 27.126 2.55743 27.4951 1.90128 28.1513C1.24513 28.8074 0.876042 29.6971 0.875 30.625V44.625C0.876042 45.5529 1.24513 46.4426 1.90128 47.0987C2.55743 47.7549 3.44706 48.124 4.375 48.125H13.125C14.0529 48.1238 14.9424 47.7546 15.5985 47.0985C16.2546 46.4424 16.6238 45.5529 16.625 44.625V42H24.2539L23.8164 43.75H21C20.7679 43.75 20.5454 43.8422 20.3813 44.0063C20.2172 44.1704 20.125 44.3929 20.125 44.625V47.25C20.125 47.4821 20.2172 47.7046 20.3813 47.8687C20.5454 48.0328 20.7679 48.125 21 48.125H51.625C52.5529 48.1238 53.4424 47.7546 54.0985 47.0985C54.7546 46.4424 55.1238 45.5529 55.125 44.625V21.875C55.1238 20.9471 54.7546 20.0576 54.0985 19.4015C53.4424 18.7454 52.5529 18.3762 51.625 18.375ZM14.875 44.625C14.8744 45.0889 14.6898 45.5337 14.3618 45.8618C14.0337 46.1898 13.5889 46.3744 13.125 46.375H4.375C3.91106 46.3744 3.46629 46.1898 3.13823 45.8618C2.81018 45.5337 2.62561 45.0889 2.625 44.625V30.625C2.62561 30.1611 2.81018 29.7163 3.13823 29.3882C3.46629 29.0602 3.91106 28.8756 4.375 28.875H5.49391L6.16984 30.9017C6.22792 31.0759 6.33935 31.2275 6.48835 31.3349C6.63734 31.4422 6.81635 31.5 7 31.5H10.5C10.6837 31.5 10.8627 31.4422 11.0117 31.3349C11.1606 31.2275 11.2721 31.0759 11.3302 30.9017L12.0061 28.875H13.125C13.5889 28.8756 14.0337 29.0602 14.3618 29.3882C14.6898 29.7163 14.8744 30.1611 14.875 30.625V44.625ZM7.33906 28.875H10.1609L9.86891 29.75H7.63109L7.33906 28.875ZM16.625 40.25V37.625H32.375V40.25H16.625ZM32.375 42V43.75H32.1836L31.7461 42H32.375ZM30.3789 43.75H25.6211L26.0586 42H29.9414L30.3789 43.75ZM21.875 46.375V45.5H32.4855C32.5656 45.8067 32.687 46.101 32.8464 46.375H21.875ZM32.375 21.875V35.875H16.625V30.625C16.6238 29.6971 16.2546 28.8076 15.5985 28.1515C14.9424 27.4954 14.0529 27.1262 13.125 27.125H7.875V11.375C7.87561 10.9111 8.06018 10.4663 8.38823 10.1382C8.71629 9.81018 9.16106 9.62561 9.625 9.625H46.375C46.8389 9.62561 47.2837 9.81018 47.6118 10.1382C47.9398 10.4663 48.1244 10.9111 48.125 11.375V18.375H35.875C34.9471 18.3762 34.0576 18.7454 33.4015 19.4015C32.7454 20.0576 32.3762 20.9471 32.375 21.875ZM53.375 44.625C53.3744 45.0889 53.1898 45.5337 52.8618 45.8618C52.5337 46.1898 52.0889 46.3744 51.625 46.375H35.875C35.4111 46.3744 34.9663 46.1898 34.6382 45.8618C34.3102 45.5337 34.1256 45.0889 34.125 44.625V21.875C34.1256 21.4111 34.3102 20.9663 34.6382 20.6382C34.9663 20.3102 35.4111 20.1256 35.875 20.125H51.625C52.0889 20.1256 52.5337 20.3102 52.8618 20.6382C53.1898 20.9663 53.3744 21.4111 53.375 21.875V44.625Z" fill="white"/>
<path d="M51.625 21H35.875C35.6429 21 35.4204 21.0922 35.2563 21.2563C35.0922 21.4204 35 21.6429 35 21.875V42C35 42.2321 35.0922 42.4546 35.2563 42.6187C35.4204 42.7828 35.6429 42.875 35.875 42.875H51.625C51.8571 42.875 52.0796 42.7828 52.2437 42.6187C52.4078 42.4546 52.5 42.2321 52.5 42V21.875C52.5 21.6429 52.4078 21.4204 52.2437 21.2563C52.0796 21.0922 51.8571 21 51.625 21ZM50.75 41.125H36.75V22.75H50.75V41.125Z" fill="white"/>
<path d="M42.875 45.5C43.3582 45.5 43.75 45.1082 43.75 44.625C43.75 44.1418 43.3582 43.75 42.875 43.75C42.3918 43.75 42 44.1418 42 44.625C42 45.1082 42.3918 45.5 42.875 45.5Z" fill="white"/>
</svg>
